# xmcd
#
# Track frame offsets: 
#        150
#        13195
#        31851
#        49514
#        59244
#        76239
#        90844
#        100429
#        122059
#        138605
#        149453
#        159501
#        178286
#        179156
#        193379
#        193901
#        214407
#        215125
#        228100
#        228586
#        243166
#        245833
#        255386
#        259895
#        271442
#        273900
#
# Disc length: 3783 seconds
#
# Revision: 2
# Processed by: cddbd v1.5.2PL0 Copyright (c) Steve Scherf et al.
# Submitted via: ExactAudioCopyFreeDBPlugin 1.0
#
DISCID=960ec51a
DTITLE=Junior Wells - Hoodoo Man Blues
DYEAR=1965
DGENRE=Blues
TTITLE0=Junior Wells' Chicago Blues Band - Snatch It Back And Hold It
TTITLE1=Junior Wells' Chicago Blues Band - Ships On The Ocean
TTITLE2=Junior Wells' Chicago Blues Band - Good Morning Schoolgirl
TTITLE3=Junior Wells' Chicago Blues Band - Hound Dog
TTITLE4=Junior Wells' Chicago Blues Band - In The Wee Wee Hours
TTITLE5=Junior Wells' Chicago Blues Band - Hey Lawdy Mama
TTITLE6=Junior Wells' Chicago Blues Band - Hoodoo Man Blues
TTITLE7=Junior Wells' Chicago Blues Band - Early In The Morning
TTITLE8=Junior Wells' Chicago Blues Band - We're Ready
TTITLE9=Junior Wells' Chicago Blues Band - You Don't Love Me, Baby
TTITLE10=Junior Wells' Chicago Blues Band - Chitlins Con Carne
TTITLE11=Junior Wells' Chicago Blues Band - Yonder Wall
TTITLE12=Junior Wells' Chicago Blues Band - Studio Chatter 1
TTITLE13=Junior Wells' Chicago Blues Band - I Ain't Stranded
TTITLE14=Junior Wells' Chicago Blues Band - Studio Chatter 2
TTITLE15=Junior Wells' Chicago Blues Band - In The Wee Wee Hours (alt.
TTITLE15=take)
TTITLE16=Junior Wells' Chicago Blues Band - Studio Chatter 3
TTITLE17=Junior Wells' Chicago Blues Band - Hoodoo Man Blues (alt. tak
TTITLE17=e)
TTITLE18=Junior Wells' Chicago Blues Band - Studio Chatter 4
TTITLE19=Junior Wells' Chicago Blues Band - Chitlins Con Carne (alt. t
TTITLE19=ake)
TTITLE20=Junior Wells' Chicago Blues Band - Studio Chatter 5
TTITLE21=Junior Wells' Chicago Blues Band - Yonder Wall (alt. take 7)
TTITLE22=Junior Wells' Chicago Blues Band - Studio Chatter 6
TTITLE23=Junior Wells' Chicago Blues Band - Yonder Wall (alt. take 11)
TTITLE24=Junior Wells' Chicago Blues Band - Studio Chatter 7
TTITLE25=Junior Wells' Chicago Blues Band - Yonder Wall (alt. take 13)
EXTD=
EXTT0=
EXTT1=
EXTT2=
EXTT3=
EXTT4=
EXTT5=
EXTT6=
EXTT7=
EXTT8=
EXTT9=
EXTT10=
EXTT11=
EXTT12=
EXTT13=
EXTT14=
EXTT15=
EXTT16=
EXTT17=
EXTT18=
EXTT19=
EXTT20=
EXTT21=
EXTT22=
EXTT23=
EXTT24=
EXTT25=
PLAYORDER=
